<svg version="1.1" preserveAspectRatio="none" xmlns="http://www.w3.org/2000/svg" width="500" height="500" viewBox="0 0 500 500"><rect width="100%" height="100%" fill="#EFEBE5" fill-opacity="1"/><svg viewBox="54.39 33.3537 397.8866 233.3555" width="333" height="195.3003230066054" x="83.5px" y="152.3498px" xmlns="http://www.w3.org/2000/svg" xmlns:xlink="http://www.w3.org/1999/xlink" preserveAspectRatio="none"><defs></defs><style>.companyName {fill:#FF7E73;fill-opacity:1;}.icon1 {fill:#776464;fill-opacity:1;}.icon2 {fill:#FF7E73;fill-opacity:1;}.icon3 {fill:#493838;fill-opacity:1;}.icon3-str {stroke:#493838;stroke-opacity:1;}</style><g opacity="1" transform="rotate(0 54.39 228.7092)">
<svg width="397.8866" height="38" x="54.39" y="228.7092" version="1.1" preserveAspectRatio="none" viewBox="0.32 -27.12 292.76000000000005 27.96">
  <g transform="matrix(1 0 0 1 0 0)" class="companyName"><path id="id-D6z1nYkh11" d="M12.96-26.40L25.44-26.56L25.48-25.40Q25.48-21.28 24.80-18.12L24.80-18.12L21.60-18.12L21-23.16L15.96-23.56L15.96-2.64L20.04-2.04L20 0L6.04 0L5.80-1.28Q6.68-1.84 9.88-3.08L9.88-3.08L9.88-23.56L4.80-23.16L4.20-18.12L1-18.12Q0.32-21.28 0.32-25.40L0.32-25.40L0.36-26.56L12.96-26.40Z M53.56-2.56L57.28-2.04L57.24 0L44.32 0L44.08-1.28Q45.24-2.04 47.48-2.92L47.48-2.92L47.48-11.36L36.72-11.36L36.72-2.56L40.40-2.04L40.36 0L27.48 0L27.24-1.28Q28.40-2.04 30.64-2.92L30.64-2.92L30.64-23.84L27.56-24.28L27.60-26.32L39.84-26.32L40.08-25.04Q38.60-24.16 36.72-23.40L36.72-23.40L36.72-14.80L47.48-14.80L47.48-23.84L44.40-24.28L44.44-26.32L56.72-26.32L56.96-25.04Q55.68-24.24 53.56-23.40L53.56-23.40L53.56-2.56Z M77.64-8.20L81-7.96Q81.08-4.04 80.52 0L80.52 0L59.60 0L59.36-1.28Q60.52-2.04 62.76-2.92L62.76-2.92L62.76-23.92L59.80-24.28L59.84-26.32L80.72-26.32Q80.92-23.04 80.08-18.72L80.08-18.72L76.72-18.72L76.04-22.68L68.84-23.20L68.84-14.60L77.44-15.28L77.44-11.24L68.84-11.60L68.84-3.32L76.32-3.84L77.64-8.20Z M106.04-5.72L107-2.88L98.80 0.64Q93.88 0.80 90.70-1.12Q87.52-3.04 86.08-6.14Q84.64-9.24 84.64-12.84L84.64-12.84Q84.64-16.52 86.16-19.80Q87.68-23.08 90.72-25.10Q93.76-27.12 98.08-27.12L98.08-27.12Q102.72-27.12 106.32-24.60L106.32-24.60Q106.40-23.32 106.16-21.16Q105.92-19 105.44-17.40L105.44-17.40L101.76-17.40L100.80-22.40Q98.04-23.60 94.76-23.60L94.76-23.60Q92.80-22.12 91.82-19.44Q90.84-16.76 90.84-13.80L90.84-13.80Q90.84-9.04 93.16-6.24Q95.48-3.44 99.44-3.56L99.44-3.56L106.04-5.72Z M120.84-27.12L120.84-27.12Q126.56-27.12 130.24-23.14Q133.92-19.16 133.92-12.80L133.92-12.80Q133.92-6.68 130.34-2.94Q126.76 0.80 121.16 0.80L121.16 0.80Q115.40 0.80 111.72-3Q108.04-6.80 108.04-13L108.04-13Q108.04-19.24 111.66-23.18Q115.28-27.12 120.84-27.12ZM117.40-23.04L117.40-23.04Q116.08-21.92 115.26-19.40Q114.44-16.88 114.44-13.72L114.44-13.72Q114.44-8.88 116.36-5.80Q118.28-2.72 121.84-2.72L121.84-2.72Q122.76-2.72 124.12-3.08L124.12-3.08Q125.64-4.28 126.56-6.88Q127.48-9.48 127.48-12.68L127.48-12.68Q127.48-17.52 125.52-20.56Q123.56-23.60 120.32-23.60L120.32-23.60Q118.96-23.60 117.40-23.04Z M164.92-26.32L165.16-25.04Q163.92-24.28 161.92-23.44L161.92-23.44L161.76 0L156.12 0.52L143.48-18.88L144.08-13.96L144.08-2.56L147.60-2.04L147.56 0L136.56 0L136.32-1.28Q137.48-2.04 139.72-2.92L139.72-2.92L139.72-23.84L136.92-24.28L136.96-26.32L145.84-26.32L145.80-26.28L158.16-6.96L157.56-12.04L157.56-23.72L153.68-24.28L153.72-26.32L164.92-26.32Z M193.56-10.20L190.52-9.56L190.52-2.76L182.00 0.80L180.80 0.84Q176.12 0.84 173.02-1.14Q169.92-3.12 168.50-6.20Q167.08-9.28 167.08-12.64L167.08-12.64Q167.08-16.44 168.78-19.76Q170.48-23.08 173.78-25.10Q177.08-27.12 181.68-27.12L181.68-27.12Q186.76-27.12 190.20-24.68L190.20-24.68L190.24-23.88Q190.24-21.04 189.36-17.88L189.36-17.88L185.72-17.88L184.76-22.36Q181.72-23.64 178.40-23.64L178.40-23.64L177.44-23.60Q175.36-22.12 174.32-19.40Q173.28-16.68 173.28-13.44L173.28-13.44Q173.28-8.96 175.54-6.06Q177.80-3.16 181.44-3.12L181.44-3.12Q182.76-3.08 184.92-3.44L184.92-3.44L184.92-8.96Q182.80-9.72 180.92-10.76L180.92-10.76L181.16-12.12L193.52-12.12L193.56-10.20Z M218.80-2.36L221.36-2.04L221.32 0L213.32 0L207.88-10.20L204.56-10.16L204.56-2.56L208.16-2.04L208.12 0L195.32 0L195.08-1.28Q196.24-2.04 198.48-2.92L198.48-2.92L198.48-23.92L195.52-24.28L195.56-26.32L208.32-26.64Q212.92-26.64 215.86-24.32Q218.80-22 218.80-18.52L218.80-18.52Q218.80-16.16 217.36-14.14Q215.92-12.12 213.44-11.08L213.44-11.08L218.80-2.36ZM204.56-22.92L204.56-13.52Q205.92-13.24 207.16-13.24L207.16-13.24Q210.00-13.24 211.26-14.68Q212.52-16.12 212.52-18.40L212.52-18.40Q212.52-21.92 210.12-23.52L210.12-23.52L204.56-22.92Z M241.44-8.20L244.80-7.96Q244.88-4.04 244.32 0L244.32 0L223.40 0L223.16-1.28Q224.32-2.04 226.56-2.92L226.56-2.92L226.56-23.92L223.60-24.28L223.64-26.32L244.52-26.32Q244.72-23.04 243.88-18.72L243.88-18.72L240.52-18.72L239.84-22.68L232.64-23.20L232.64-14.60L241.24-15.28L241.24-11.24L232.64-11.60L232.64-3.32L240.12-3.84L241.44-8.20Z M269.16-7.24L269.16-7.24Q269.16-3.68 266.34-1.44Q263.52 0.80 259.24 0.80L259.24 0.80Q256.92 0.80 254.20 0.10Q251.48-0.60 249.72-1.76L249.72-1.76L249.68-2.88Q249.68-6.20 250.32-9.20L250.32-9.20L253.20-9.20L255.16-3.60Q257.68-2.44 260.92-2.44L260.92-2.44Q263.12-3.48 263.12-5.80L263.12-5.80Q263.12-7.92 260.52-9.36L260.52-9.36L254.52-12.40Q249.76-15.12 249.76-19.24L249.76-19.24Q249.76-22.72 252.64-24.92Q255.52-27.12 260.04-27.12L260.04-27.12Q264.04-27.12 267.96-25.68L267.96-25.68Q267.96-21.44 267.28-18.36L267.28-18.36L264.08-18.36L262.92-22.84Q260.60-24.04 257.36-23.96L257.36-23.96Q255.52-22.80 255.52-20.72L255.52-20.72Q255.52-19.52 256.58-18.54Q257.64-17.56 260.90-16.08Q264.16-14.60 265.70-13.54Q267.24-12.48 268.20-10.94Q269.16-9.40 269.16-7.24Z M293.08-7.24L293.08-7.24Q293.08-3.68 290.26-1.44Q287.44 0.80 283.16 0.80L283.16 0.80Q280.84 0.80 278.12 0.10Q275.40-0.60 273.64-1.76L273.64-1.76L273.60-2.88Q273.60-6.20 274.24-9.20L274.24-9.20L277.12-9.20L279.08-3.60Q281.60-2.44 284.84-2.44L284.84-2.44Q287.04-3.48 287.04-5.80L287.04-5.80Q287.04-7.92 284.44-9.36L284.44-9.36L278.44-12.40Q273.68-15.12 273.68-19.24L273.68-19.24Q273.68-22.72 276.56-24.92Q279.44-27.12 283.96-27.12L283.96-27.12Q287.96-27.12 291.88-25.68L291.88-25.68Q291.88-21.44 291.20-18.36L291.20-18.36L288.00-18.36L286.84-22.84Q284.52-24.04 281.28-23.96L281.28-23.96Q279.44-22.80 279.44-20.72L279.44-20.72Q279.44-19.52 280.50-18.54Q281.56-17.56 284.82-16.08Q288.08-14.60 289.62-13.54Q291.16-12.48 292.12-10.94Q293.08-9.40 293.08-7.24Z"/></g>
</svg>
</g><g opacity="1" transform="rotate(0 173.756 33.3537)">
<svg width="159.1546" height="165.3555" x="173.756" y="33.3537" version="1.1" preserveAspectRatio="none" viewBox="23 20 154 160">
  <g transform="matrix(1 0 0 1 0 0)"><g><path d="M100 20l77 44.4-22 12.8-55 32-77-44.6L100 20z" data-color="1" class="icon1"></path><path d="M177 101.4l-20.7 12 20.7 22.2-77 44.4-77-80.2L98.5 144 23 64.6l77 44.6 55-32 22 24.2z" data-color="2" class="icon2"></path><path d="M45 87.7L23 99.8 98.5 144 45 87.7z" data-color="1" class="icon1"></path><path d="M45.5 123.3L23 136.2l77 43.8-54.5-56.7z" data-color="1" class="icon1"></path></g></g>
</svg>
</g></svg></svg>